<svg width="150" height="207" viewBox="0 0 150 207" fill="none" xmlns="http://www.w3.org/2000/svg">
<circle cx="75" cy="75" r="75" fill="#FFCC00"/>
<rect x="42.0001" y="87" width="66" height="120" rx="15" fill="#FFCC00"/>
<mask id="mask0" mask-type="alpha" maskUnits="userSpaceOnUse" x="42" y="87" width="66" height="120">
<path d="M42.0001 120C42.0001 101.775 56.7747 87 75.0001 87C93.2255 87 108 101.775 108 120V192C108 200.284 101.284 207 93.0001 207H57.0001C48.7158 207 42.0001 200.284 42.0001 192V120Z" fill="#FFCC00"/>
</mask>
<g mask="url(#mask0)">
<path d="M47.0001 167H103V192C103 197.523 98.5229 202 93.0001 202H57.0001C51.4772 202 47.0001 197.523 47.0001 192V167Z" fill="#034553" stroke="#FFCC00" stroke-width="10"/>
</g>
<path d="M89.8477 176.311L107.365 66C103.862 75.0732 94.9861 92.0736 87.512 87.4892C78.1695 81.7588 84.0086 66 75.8338 66" stroke="#034553" stroke-width="5"/>
<path d="M75.8339 66H74.6661" stroke="#034553" stroke-width="5"/>
<path d="M60.6523 176.312L43.1349 66.0002C46.6384 75.0735 55.5138 92.0738 62.9879 87.4895C72.3305 81.759 66.4914 66.0002 74.6661 66.0002" stroke="#034553" stroke-width="5"/>
</svg>
