<svg width="721" height="609" viewBox="0 0 721 609" fill="none" xmlns="http://www.w3.org/2000/svg">
<path d="M674.9 0.376953H11.0296V426.206H674.9V0.376953Z" fill="#E6E6E6"/>
<path d="M655.917 53.7865H30.0128V401.014H655.917V53.7865Z" fill="white"/>
<path d="M674.616 0H10.7461V28.2472H674.616V0Z" fill="#FFCC00"/>
<path d="M31.7048 19.6769C34.5917 19.6769 36.9321 17.3329 36.9321 14.4415C36.9321 11.55 34.5917 9.20605 31.7048 9.20605C28.8178 9.20605 26.4774 11.55 26.4774 14.4415C26.4774 17.3329 28.8178 19.6769 31.7048 19.6769Z" fill="white"/>
<path d="M51.5464 19.6769C54.4334 19.6769 56.7737 17.3329 56.7737 14.4415C56.7737 11.55 54.4334 9.20605 51.5464 9.20605C48.6594 9.20605 46.3191 11.55 46.3191 14.4415C46.3191 17.3329 48.6594 19.6769 51.5464 19.6769Z" fill="white"/>
<path d="M71.388 19.6769C74.275 19.6769 76.6154 17.3329 76.6154 14.4415C76.6154 11.55 74.275 9.20605 71.388 9.20605C68.5011 9.20605 66.1607 11.55 66.1607 14.4415C66.1607 17.3329 68.5011 19.6769 71.388 19.6769Z" fill="white"/>
<path d="M710.006 548.411L714.884 567.956L693.419 573.82L691.467 553.298L710.006 548.411Z" fill="#FBBEBE"/>
<path d="M631.948 572.842V591.41L610.481 595.319L606.579 585.546L614.385 568.934L631.948 572.842Z" fill="#FBBEBE"/>
<path d="M674.88 370.555L671.953 396.94L673.904 447.756C673.904 447.756 673.904 452.643 676.831 454.597C678.401 455.665 712.933 552.32 712.933 552.32C712.933 552.32 705.127 562.093 690.491 559.161L687.564 549.389C687.564 549.389 683.661 536.685 681.71 533.753C679.758 530.821 650.487 471.21 650.487 471.21L636.827 446.779L632.924 480.005C632.924 480.005 640.729 522.026 638.778 541.571C636.827 561.116 632.924 581.637 632.924 581.637L609.506 577.728C609.4 574.575 608.383 571.52 606.579 568.933C603.652 565.024 604.628 551.343 604.628 551.343V548.411L598.773 473.165L588.04 374.464L674.88 370.555Z" fill="#2F2E41"/>
<path d="M608.53 192.699C623.08 192.699 634.875 180.885 634.875 166.313C634.875 151.741 623.08 139.928 608.53 139.928C593.981 139.928 582.186 151.741 582.186 166.313C582.186 180.885 593.981 192.699 608.53 192.699Z" fill="#FBBEBE"/>
<path d="M631.46 166.802L642.193 193.187L616.824 211.755L601.213 184.392L631.46 166.802Z" fill="#FBBEBE"/>
<path d="M632.924 186.835L642.681 181.949L648.535 195.63C648.535 195.63 686.589 207.357 683.661 261.105C680.734 314.853 673.904 335.375 673.904 335.375C673.904 335.375 690.491 370.555 680.734 374.464C670.977 378.373 588.04 393.031 586.089 379.35C584.137 365.669 592.919 285.536 592.919 285.536C592.919 285.536 589.992 227.879 614.385 216.152L609.506 205.403L632.924 186.835Z" fill="#3F3D56"/>
<path d="M579.259 376.418C579.259 376.418 556.817 399.872 569.501 405.735C582.186 411.599 589.992 379.35 589.992 379.35L579.259 376.418Z" fill="#FBBEBE"/>
<path d="M625.118 586.524L635.851 582.615C635.851 582.615 647.559 609 637.802 609H612.433C612.433 609 597.797 604.114 589.992 604.114C582.186 604.114 567.55 589.455 578.283 582.615C589.016 575.774 602.676 577.728 602.676 577.728L606.579 568.933L611.458 582.615C611.458 582.615 617.312 592.387 625.118 586.524Z" fill="#2F2E41"/>
<path d="M704.152 565.024C704.152 565.024 710.262 561.163 713.549 562.605C716.836 564.047 718.787 579.683 718.787 579.683C718.787 579.683 728.545 591.41 707.079 593.364C685.613 595.319 680.734 591.41 678.783 585.546C676.831 579.683 680.734 573.82 680.734 573.82L686.589 571.865C686.589 571.865 693.419 566.979 691.467 565.025C689.516 563.07 691.467 559.161 691.467 559.161C691.467 559.161 698.297 572.842 704.152 565.024Z" fill="#2F2E41"/>
<path d="M617.541 165.891C617.434 165.037 617.242 164.196 616.968 163.38C615.552 160.405 610.028 161.273 609.043 158.128C608.851 157.513 608.891 156.843 608.702 156.226C608.221 154.654 606.374 153.874 604.734 153.949C603.106 154.174 601.51 154.586 599.977 155.176C596.117 156.273 592.011 155.854 588.021 155.427C586.242 155.367 584.499 154.912 582.916 154.096C581.406 153.165 580.317 151.291 580.867 149.602C581.394 147.983 583.164 147.093 583.959 145.587C585.223 143.197 583.678 140.109 584.703 137.607C586.347 133.593 592.569 134.399 595.73 131.432C596.497 130.711 597.049 129.791 597.785 129.038C599.966 126.804 603.412 126.372 606.517 126.68C609.621 126.988 612.672 127.901 615.791 127.846C618.75 127.794 621.851 126.892 624.576 128.044C626.179 128.865 627.587 130.024 628.703 131.439L635.694 139.119C636.654 140.025 637.394 141.141 637.855 142.379C638.276 143.85 637.889 145.43 638.068 146.95C638.477 150.417 641.718 153.035 642.155 156.498C642.243 157.572 642.191 158.653 642.001 159.714L641.021 166.946C640.972 167.651 640.785 168.339 640.47 168.972C640.185 169.459 639.754 169.844 639.434 170.309C638.528 171.62 638.611 173.354 638.161 174.883C637.711 176.412 636.098 177.926 634.687 177.189C633.766 176.708 633.157 172.731 632.039 171.699C630.481 170.261 629.667 170.438 627.745 170.462C623.894 170.511 618.773 170.842 617.541 165.891Z" fill="#2F2E41"/>
<path d="M622.191 222.993C622.191 222.993 651.462 234.72 642.681 261.105C633.899 287.49 610.482 368.601 610.482 368.601L596.822 375.441L592.919 386.191L574.38 379.35L577.307 364.692L584.137 350.033L601.7 240.583C601.7 240.583 601.7 222.016 622.191 222.993Z" fill="#3F3D56"/>
<path opacity="0.1" d="M644.145 266.479L613.897 370.066L601.213 382.771L608.531 369.577L644.145 266.479Z" fill="black"/>
<path d="M48.6019 283.233L54.3052 323.852L78.3856 367.01C85.3562 373.356 79.0193 388.588 79.0193 388.588L72.6823 384.146L71.415 376.53C71.415 376.53 43.5324 344.796 36.5617 337.18C29.5911 329.564 27.0563 287.675 27.0563 287.675L48.6019 283.233Z" fill="#FBBEBE"/>
<path d="M27.6143 558.691C27.6143 558.691 28.8817 573.288 28.248 577.096C27.6143 580.904 8.60352 576.462 8.60352 576.462C11.772 570.115 13.6731 551.075 13.6731 551.075L27.6143 558.691Z" fill="#FBBEBE"/>
<path d="M122.035 562.499C122.035 562.499 123.936 582.808 123.302 586.617C122.668 590.425 103.658 585.982 103.658 585.982C106.826 579.635 108.727 560.595 108.727 560.595L122.035 562.499Z" fill="#FBBEBE"/>
<path d="M83.2019 236.912C95.9317 236.912 106.251 226.576 106.251 213.827C106.251 201.077 95.9317 190.742 83.2019 190.742C70.4721 190.742 60.1525 201.077 60.1525 213.827C60.1525 226.576 70.4721 236.912 83.2019 236.912Z" fill="#FBBEBE"/>
<path d="M87.1816 235.642C83.3794 240.72 85.2805 249.605 85.2805 249.605C85.2805 249.605 46.6251 294.667 39.6546 294.667C32.684 294.667 33.9513 262.933 33.9513 262.933C33.9513 262.933 44.0904 250.874 49.7937 248.336C55.497 245.797 65.636 218.506 65.636 218.506C65.636 218.506 90.9837 230.565 87.1816 235.642Z" fill="#FBBEBE"/>
<path d="M113.163 321.958L137.968 363.69C142.496 371.15 134.075 408.908 134.075 408.908L130.273 489.512L123.936 570.73V579.615L103.024 578.98L96.0533 492.05L85.9142 426.679L69.4382 476.818L42.1893 538.381C39.8627 545.975 37.0035 553.395 33.6332 560.585L28.5636 569.47L9.55786 567.245L38.3871 469.837L44.0904 406.369C44.7241 370.828 56.1306 351.153 56.1306 351.153V343.537L113.163 321.958Z" fill="#2F2E41"/>
<path d="M26.3469 573.923C26.3469 573.923 29.5154 568.846 29.5154 570.75C29.5154 572.654 37.7534 577.731 37.7534 577.731C37.7534 577.731 45.9915 576.462 47.2589 585.982C48.5262 595.502 35.8524 597.406 32.6839 596.771C29.5154 596.137 21.2774 597.406 21.2774 597.406C21.2774 597.406 14.9405 598.675 4.80136 597.406C-5.33774 596.137 3.53398 579 4.80136 575.827C6.06875 572.654 12.4057 575.192 12.4057 575.192C23.8122 578.366 26.3469 573.923 26.3469 573.923Z" fill="#2F2E41"/>
<path d="M121.401 583.443C121.401 583.443 124.57 578.366 124.57 580.27C124.57 582.174 132.808 587.251 132.808 587.251C132.808 587.251 141.046 585.982 142.313 595.502C143.58 605.022 130.907 606.926 127.738 606.291C124.57 605.657 116.332 606.926 116.332 606.926C116.332 606.926 109.995 608.195 99.8555 606.926C89.7164 605.657 98.5881 588.521 99.8555 585.347C101.123 582.174 107.46 584.712 107.46 584.712C118.866 587.886 121.401 583.443 121.401 583.443Z" fill="#2F2E41"/>
<path d="M77.6761 248.97C93.5185 232.469 110.628 273.723 110.628 273.723C110.628 273.723 116.332 288.955 111.896 297.206C107.46 305.456 116.331 323.862 116.331 323.862C94.6302 342.364 73.0045 359.47 52.9621 347.345C55.4969 332.113 47.2589 324.496 41.5556 309.899C35.8523 295.302 25.0795 298.475 25.0795 298.475C25.0795 298.475 25.7132 281.973 27.6143 268.645C29.5154 255.317 46.6252 250.313 46.6252 250.313C49.727 255.893 61.8338 265.472 77.6761 248.97Z" fill="#3F3D56"/>
<path d="M105.559 275.627L111.262 316.246L135.342 359.404C142.313 365.75 135.976 380.982 135.976 380.982L129.639 376.54L128.372 368.924C128.372 368.924 100.489 337.19 93.5185 329.574C86.5479 321.958 84.0131 280.069 84.0131 280.069L105.559 275.627Z" fill="#FBBEBE"/>
<path d="M109.361 281.973L82.7457 285.147C82.7457 285.147 80.8447 254.048 84.8636 246.281C88.8826 238.514 103.658 247.066 103.658 247.066C107.46 247.701 109.361 281.973 109.361 281.973Z" fill="#3F3D56"/>
<path d="M109.006 200.461C91.9612 208.993 101.795 232.289 99.7833 242.064C96.4884 258.075 47.8981 249.938 47.8981 249.938C41.9863 248.873 38.3834 182.999 70.759 183.582C87.0784 183.875 123.606 193.152 109.006 200.461Z" fill="#2F2E41"/>
<path d="M98.615 220.716C99.9256 220.716 100.988 219.013 100.988 216.913C100.988 214.813 99.9256 213.11 98.615 213.11C97.3043 213.11 96.2418 214.813 96.2418 216.913C96.2418 219.013 97.3043 220.716 98.615 220.716Z" fill="#FBBEBE"/>
<path d="M191.924 135.546C216.975 140.176 242.53 135.546 267.477 132.408L343.296 122.901C346.362 122.511 350.824 120.676 352.627 124.431C353.643 126.532 352.959 131.087 353.035 133.501C353.235 140.157 353.216 146.812 353.035 153.467C352.694 166.188 351.763 178.881 350.577 191.545C348.27 216.331 345.005 240.983 343.372 265.865C342.536 278.528 342.119 291.23 342.489 303.894C342.574 306.918 342.698 309.941 342.878 312.955C343.077 316.33 344.587 321.341 340.913 323.594C338.815 324.887 334.686 324.82 332.284 325.201C328.487 325.8 324.69 326.275 320.817 326.665C295.291 329.222 269.432 328.157 243.811 328.005L166.445 327.606L147.573 327.501C145.864 327.501 139.704 328.528 138.65 326.494C138.204 325.628 139.39 321.578 139.599 320.494C139.89 318.707 140.207 316.923 140.549 315.142C142.751 302.639 145.352 290.213 147.972 277.796C153.601 251.175 159.363 224.421 161.68 197.23C162.828 183.587 162.069 169.82 163.474 156.205C164.129 149.883 164.907 135.774 173.308 135.213C180.428 134.737 187.756 135.213 194.895 135.213C195.272 135.213 195.635 135.063 195.902 134.795C196.169 134.528 196.319 134.165 196.319 133.787C196.319 133.408 196.169 133.046 195.902 132.778C195.635 132.511 195.272 132.361 194.895 132.361C188.155 132.361 181.406 132.18 174.666 132.313C170.185 132.399 167.071 133.463 164.936 137.59C159.477 148.181 160.037 162.309 159.866 173.87C159.458 201.546 155.215 228.633 149.69 255.701C146.909 269.325 143.909 282.902 141.147 296.536C139.846 303.048 138.602 309.58 137.463 316.131C136.932 319.249 134.245 326.123 136.609 328.985C138.973 331.846 146.244 330.306 149.5 330.325L172.15 330.458L215.551 330.705C243.593 330.867 271.73 331.656 299.762 330.829C313.147 330.43 327.291 329.878 340.325 326.674C344.207 325.724 346.077 323.936 346.229 319.791C346.457 313.364 345.413 306.737 345.28 300.282C344.331 245.043 357.288 190.575 355.959 135.317C355.874 131.562 357.288 122.092 353.187 119.82C351.346 118.793 348.954 119.354 347.017 119.583C343.315 120.01 339.622 120.533 335.92 120.971L287.839 126.979C272.47 128.881 257.111 130.934 241.713 132.684C225.414 134.585 208.954 135.717 192.711 132.684C190.917 132.351 190.148 135.099 191.952 135.431L191.924 135.546Z" fill="#E6E6E6"/>
<path d="M161.699 169.154L351.384 159.837C353.216 159.742 353.225 156.89 351.384 156.985L161.699 166.302C159.876 166.388 159.866 169.24 161.699 169.154Z" fill="#E6E6E6"/>
<path d="M220.136 145.643C219.606 146.206 219.221 146.89 219.014 147.636C218.808 148.382 218.787 149.167 218.952 149.923C219.118 150.68 219.465 151.384 219.964 151.975C220.464 152.566 221.099 153.026 221.816 153.315C224.37 154.484 227.37 153.505 229.904 152.868C233.701 151.917 237.499 151.071 241.4 150.377C249.892 148.872 258.493 148.07 267.116 147.981C271.046 147.934 274.948 148.114 278.878 148.286C281.726 148.4 284.792 148.628 287.203 146.859C289.956 144.844 290.848 140.908 288.152 138.455C284.355 134.985 276.172 137 271.787 137.362C255.873 138.686 240.062 141.048 224.455 144.435C222.671 144.815 223.421 147.573 225.215 147.183C235.511 144.958 245.887 143.171 256.342 141.821C261.481 141.187 266.629 140.651 271.787 140.214C274.217 140.014 276.647 139.833 279.077 139.691C280.026 139.634 281.033 139.529 282.001 139.558C285.01 139.624 285.361 139.082 283.558 142.724C281.953 145.947 282.466 145.576 279.685 145.471C278.507 145.471 277.33 145.338 276.153 145.281C273.742 145.18 271.331 145.126 268.92 145.12C263.787 145.12 258.668 145.367 253.56 145.861C249.232 146.28 244.912 146.869 240.631 147.63C237.954 148.105 235.296 148.656 232.648 149.265C231.48 149.541 230.303 149.826 229.135 150.121C228.575 150.273 228.006 150.406 227.446 150.548C225.37 151.271 223.601 150.32 222.139 147.696C223.411 146.375 221.408 144.35 220.127 145.681L220.136 145.643Z" fill="#E6E6E6"/>
<path d="M254.519 186.22C240.783 185.688 225.946 189.405 216.899 200.482C209.818 209.143 205.783 224.003 213.282 233.758C221.342 244.216 239.017 242.372 249.678 237.913C260.955 233.159 273.296 223.357 276.685 211.092C280.909 195.775 267.192 184.195 252.905 184.024C252.537 184.038 252.188 184.194 251.932 184.46C251.676 184.726 251.533 185.081 251.533 185.45C251.533 185.82 251.676 186.175 251.932 186.441C252.188 186.707 252.537 186.863 252.905 186.876C261.05 186.971 269.043 190.47 272.84 198.067C276.818 206.072 273.391 214.477 268.094 220.885C259.607 231.086 246.336 238.778 232.819 238.559C224.702 238.435 215.732 235.65 213.216 227.074C211.147 220.124 212.722 212.528 216.33 206.367C224.133 193.056 240.014 188.55 254.576 189.12C256.408 189.187 256.408 186.335 254.576 186.268L254.519 186.22Z" fill="#E6E6E6"/>
<path d="M240.878 207.346C240.292 207.129 239.661 207.063 239.044 207.156C238.426 207.248 237.842 207.496 237.345 207.876C236.849 208.255 236.456 208.754 236.204 209.327C235.952 209.899 235.849 210.526 235.904 211.149C236.189 214.857 240.27 215.903 243.337 215.684C245.985 215.456 249.08 214.477 248.149 211.158C247.978 210.571 247.683 210.028 247.283 209.565C246.883 209.102 246.389 208.731 245.833 208.477C244.984 208.14 244.062 208.025 243.156 208.145C242.805 208.145 239.587 209.324 240.954 207.907L238.714 207.612C238.962 207.858 239.153 208.156 239.271 208.485C239.389 208.814 239.432 209.166 239.397 209.514C239.401 209.762 239.47 210.005 239.596 210.219C239.723 210.433 239.902 210.611 240.117 210.734C240.333 210.858 240.576 210.923 240.824 210.924C241.073 210.925 241.317 210.862 241.533 210.74C241.859 210.604 242.216 210.561 242.565 210.616C242.913 210.672 243.24 210.824 243.507 211.055C243.774 211.286 243.972 211.587 244.077 211.925C244.183 212.262 244.193 212.622 244.106 212.965C244.029 213.294 244.071 213.64 244.224 213.941C244.378 214.243 244.632 214.48 244.943 214.612C245.254 214.744 245.601 214.762 245.924 214.662C246.246 214.562 246.524 214.352 246.707 214.068C247.656 212.356 248.804 208.953 247.381 207.165C246.431 205.958 244.599 206.319 243.46 207.023C242.757 207.521 242.102 208.084 241.505 208.706C240.356 209.723 239.606 210.198 240.033 208.249C240.745 204.703 244.125 201.879 247.21 200.463L245.121 198.856C244.026 202.977 242.069 206.817 239.378 210.122L241.808 211.13C241.739 209.824 242.074 208.53 242.768 207.422C243.461 206.314 244.478 205.448 245.681 204.941H244.286L245.026 206.158C244.751 207.954 247.494 208.725 247.77 206.909C248.13 204.56 246.65 201.508 243.906 202.659C240.631 204.028 238.932 207.783 238.998 211.13C238.998 212.271 240.612 213.155 241.438 212.147C244.457 208.474 246.661 204.199 247.903 199.607C247.969 199.334 247.954 199.049 247.861 198.784C247.767 198.52 247.599 198.289 247.377 198.118C247.155 197.948 246.888 197.846 246.608 197.825C246.329 197.804 246.05 197.865 245.805 198C242.961 199.288 240.558 201.384 238.894 204.028C237.736 205.929 236.284 208.896 237.461 211.082C237.652 211.43 237.91 211.736 238.22 211.984C238.53 212.232 238.886 212.416 239.267 212.526C239.647 212.636 240.046 212.669 240.44 212.625C240.834 212.581 241.216 212.459 241.563 212.267L241.59 212.252C242.468 211.731 243.269 211.091 243.973 210.35C244.324 210.037 244.713 209.495 245.178 209.4C245.596 209.114 245.577 209.276 245.112 209.903C245.106 210.889 244.819 211.852 244.286 212.68L246.887 213.773C247.121 212.885 247.094 211.949 246.808 211.076C246.522 210.204 245.99 209.433 245.277 208.857C244.563 208.28 243.698 207.924 242.786 207.829C241.874 207.735 240.954 207.907 240.138 208.325L242.283 209.561C242.328 208.351 241.948 207.164 241.21 206.205C241.098 206.02 240.946 205.863 240.765 205.745C240.585 205.626 240.379 205.55 240.165 205.522C239.951 205.494 239.734 205.514 239.528 205.581C239.323 205.648 239.136 205.761 238.979 205.91C237.537 207.422 237.261 210.037 239.074 211.434C240.432 212.471 241.096 211.434 242.587 211.196C247.646 210.54 244.694 212.822 242.909 212.898C242.111 212.984 241.304 212.926 240.527 212.727C238.546 212.055 238.423 211.19 240.157 210.132C241.856 210.826 242.587 208.069 240.916 207.384L240.878 207.346Z" fill="#E6E6E6"/>
<path d="M238.59 212.556C239.758 216.359 234.935 217.614 232.648 218.926C231.042 219.828 229.642 221.055 228.537 222.529C226.145 225.743 225.253 229.831 224.465 233.682C224.104 235.479 226.848 236.239 227.218 234.442C227.652 231.613 228.46 228.854 229.62 226.237C231.328 222.834 233.777 221.693 236.967 219.943C240.157 218.194 242.463 215.484 241.334 211.796C240.802 210.046 238.049 210.797 238.59 212.556Z" fill="#E6E6E6"/>
<path d="M243.337 210.645C242.657 210.739 242.038 211.084 241.599 211.611C241.16 212.139 240.933 212.811 240.963 213.497C240.963 214.629 241.713 215.351 242.226 216.254C243.443 218.102 244.371 220.125 244.979 222.254C245.435 224.298 245.881 227.958 244.818 229.86C242.853 233.387 239.302 232.712 236.274 232.712C233.426 232.712 231.224 233.663 231.319 229.688C231.376 227.454 232.933 225.191 234.167 223.433L231.566 223.09C232.114 225.993 232.403 228.94 232.429 231.894C232.429 233.216 234.451 233.948 235.078 232.607C236.604 229.392 237.815 226.036 238.695 222.586L235.894 222.206L236.388 229.432C236.396 229.74 236.503 230.038 236.693 230.28C236.884 230.523 237.147 230.698 237.444 230.779C237.741 230.86 238.057 230.843 238.343 230.73C238.63 230.618 238.873 230.416 239.036 230.154C239.369 229.787 239.613 229.348 239.748 228.871C239.843 228.424 238.97 225.41 238.619 226.484L241.41 226.865L241.609 220L238.761 220.381C239.363 222.316 239.544 224.359 239.293 226.37C239.112 227.958 241.78 228.319 242.141 226.751L243.925 217.528L241.324 217.861C241.942 219.137 242.113 220.584 241.808 221.968C241.599 223.794 244.447 223.775 244.656 221.968C244.898 220.075 244.595 218.152 243.783 216.426C243.639 216.188 243.428 215.997 243.178 215.876C242.927 215.756 242.647 215.711 242.371 215.747C242.095 215.784 241.836 215.899 241.625 216.081C241.414 216.262 241.26 216.501 241.182 216.768L239.388 225.99L242.188 226.37C242.473 224.104 242.256 221.802 241.552 219.63C241.457 219.302 241.248 219.02 240.963 218.833C240.677 218.647 240.335 218.569 239.998 218.614C239.66 218.659 239.35 218.824 239.123 219.078C238.896 219.332 238.768 219.659 238.761 220L238.562 226.865C238.569 227.206 238.698 227.533 238.925 227.787C239.152 228.042 239.462 228.207 239.8 228.253C240.137 228.298 240.48 228.222 240.767 228.037C241.053 227.853 241.264 227.572 241.362 227.245L241.514 226.779C241.58 226.536 241.581 226.281 241.518 226.037C241.454 225.794 241.329 225.571 241.153 225.391C238.201 222.178 237.603 227.293 236.578 228.709L239.236 229.432L238.742 222.206C238.638 220.666 236.359 220.191 235.942 221.826C235.139 225.042 234.027 228.172 232.619 231.172L235.277 231.894C235.247 228.684 234.929 225.483 234.328 222.33C234.081 221.018 232.363 221.075 231.727 221.987C229.828 224.726 226.544 230.706 229.078 233.986C231.29 236.838 238.248 235.735 241.22 235.555C245.909 235.288 247.608 232.313 248.121 227.882C248.365 225.76 248.246 223.613 247.77 221.531C247.513 220.409 244.922 213.298 244.144 213.44C245.947 213.107 245.178 210.35 243.384 210.683L243.337 210.645Z" fill="#E6E6E6"/>
<path d="M237.821 217.053L230.047 227.331L232.505 228.766L238.201 220.514L235.6 219.411L232.762 230.259C232.685 230.588 232.727 230.934 232.88 231.235C233.034 231.537 233.288 231.774 233.599 231.906C233.91 232.038 234.257 232.056 234.58 231.956C234.903 231.857 235.18 231.646 235.363 231.362C236.654 229.218 238.104 227.175 239.701 225.249L237.328 223.86C236.69 226.317 235.462 228.579 233.749 230.449L236.132 231.837C236.277 230.523 236.627 229.24 237.166 228.034C237.897 226.389 235.581 224.935 234.708 226.589C233.905 228.096 232.987 229.539 231.964 230.905L234.565 231.248L235.144 228.538L232.543 228.196L232.961 230.573C233.03 230.812 233.159 231.029 233.337 231.203C233.514 231.377 233.734 231.502 233.974 231.565C234.214 231.628 234.467 231.628 234.707 231.564C234.947 231.5 235.167 231.375 235.344 231.2C237.751 228.705 239.682 225.789 241.039 222.596H238.59C239.234 223.785 239.686 225.068 239.929 226.399C240.27 228.11 242.539 227.473 242.72 226.019C243.127 222.834 243.337 219.627 243.346 216.416H240.498V222.396C240.498 223.946 243.033 224.402 243.299 222.777C243.487 221.334 243.961 219.944 244.694 218.688H242.197C242.799 219.66 243.127 220.777 243.147 221.921C243.147 222.299 243.297 222.662 243.564 222.929C243.831 223.197 244.193 223.347 244.571 223.347C244.948 223.347 245.311 223.197 245.578 222.929C245.845 222.662 245.995 222.299 245.995 221.921L246.355 220.019H243.612C243.887 221.702 244.931 231.181 241.22 230.069C240.593 229.917 240.413 229.955 240.679 230.173L241.524 228.367L243.507 224.155L240.849 223.433C241.02 225.391 241.201 228.186 240.024 229.86C239.074 231.219 236.151 231.761 234.66 230.963C233.676 230.26 232.835 229.376 232.183 228.357L230.237 230.259C231.812 231.409 234.366 234.233 236.397 234.395C237.945 234.518 239.245 233.235 240.261 232.208C241.819 230.596 243.034 228.683 243.832 226.586C244.63 224.489 244.994 222.252 244.903 220.01C244.903 219.632 244.753 219.269 244.486 219.002C244.219 218.734 243.857 218.584 243.479 218.584C243.101 218.584 242.739 218.734 242.472 219.002C242.205 219.269 242.055 219.632 242.055 220.01V223.262C242.055 223.64 242.205 224.002 242.472 224.27C242.739 224.537 243.101 224.688 243.479 224.688C243.857 224.688 244.219 224.537 244.486 224.27C244.753 224.002 244.903 223.64 244.903 223.262V215.285C244.903 214.906 244.753 214.544 244.486 214.276C244.219 214.009 243.857 213.859 243.479 213.859C243.101 213.859 242.739 214.009 242.472 214.276C242.205 214.544 242.055 214.906 242.055 215.285C242.05 217.197 241.885 219.105 241.561 220.989L244.362 221.369C244.139 219.098 244.034 216.816 244.049 214.534C244.044 214.192 243.917 213.863 243.691 213.607C243.465 213.351 243.155 213.185 242.817 213.139C242.479 213.093 242.135 213.17 241.849 213.356C241.563 213.542 241.353 213.825 241.258 214.153C240.831 215.969 240.308 217.757 239.805 219.535L242.406 219.192L242.207 218.432C242.074 216.616 239.226 216.606 239.359 218.432C239.39 219.201 239.591 219.955 239.948 220.637C240.498 221.797 242.216 221.389 242.549 220.295C243.09 218.508 243.574 216.72 244.001 214.914L241.201 214.534C241.186 216.816 241.291 219.098 241.514 221.369C241.656 222.834 244.011 223.461 244.305 221.75C244.684 219.602 244.884 217.427 244.903 215.247H242.055V223.223H244.903V219.972H242.055C242.223 223.558 240.978 227.068 238.59 229.745C238.22 230.167 237.821 230.561 237.394 230.924C236.72 231.571 236.103 231.476 235.562 230.63C234.214 230.069 232.819 228.624 231.642 227.777C230.464 226.931 228.851 228.605 229.686 229.726C231.869 232.636 235.125 235.878 239.179 234.48C243.441 232.968 244.02 227.188 243.697 223.385C243.593 222.12 241.704 221.265 241.049 222.672C240.1 224.678 239.15 226.675 238.201 228.69C237.709 229.441 237.415 230.305 237.347 231.2C237.66 233.339 240.251 232.987 241.846 232.864C248.026 232.398 247.048 223.623 246.336 219.211C246.099 217.747 243.973 217.975 243.593 219.211C243.291 220.08 243.134 220.992 243.128 221.911H245.976C245.872 220.276 245.416 218.684 244.637 217.243C244.51 217.03 244.33 216.854 244.114 216.732C243.899 216.61 243.655 216.546 243.408 216.546C243.16 216.546 242.917 216.61 242.701 216.732C242.486 216.854 242.306 217.03 242.179 217.243C241.33 218.711 240.757 220.322 240.489 221.997L243.337 222.377V216.397C243.337 216.019 243.187 215.656 242.92 215.389C242.653 215.121 242.29 214.971 241.913 214.971C241.535 214.971 241.173 215.121 240.906 215.389C240.639 215.656 240.489 216.019 240.489 216.397C240.479 219.608 240.27 222.815 239.862 225.999L242.663 225.619C242.34 224.065 241.794 222.566 241.039 221.17C240.912 220.957 240.732 220.781 240.516 220.659C240.301 220.537 240.058 220.472 239.81 220.472C239.562 220.472 239.319 220.537 239.104 220.659C238.888 220.781 238.708 220.957 238.581 221.17C237.343 224.147 235.563 226.868 233.331 229.194L235.714 229.822L235.296 227.445C235.078 226.18 233.293 226.142 232.695 227.102C232.223 227.817 231.903 228.622 231.755 229.465C231.606 230.309 231.632 231.175 231.831 232.008C232.069 233.358 233.777 233.216 234.432 232.35C235.455 230.987 236.373 229.547 237.176 228.044L234.717 226.598C234.061 228.019 233.613 229.527 233.388 231.076C233.217 232.331 234.708 233.644 235.771 232.465C237.812 230.228 239.289 227.536 240.081 224.611C240.432 223.318 238.647 222.092 237.698 223.223C235.951 225.319 234.365 227.544 232.952 229.879L235.553 230.981L238.448 220.171C238.524 219.842 238.482 219.496 238.329 219.195C238.176 218.894 237.921 218.656 237.611 218.524C237.3 218.392 236.952 218.375 236.63 218.474C236.307 218.574 236.03 218.784 235.847 219.069L230.151 227.331C229.088 228.861 231.528 230.183 232.61 228.766L240.356 218.498C241.457 217.034 238.989 215.646 237.897 217.053L237.821 217.053Z" fill="#E6E6E6"/>
<path d="M358.931 251.366C370.322 244.387 379.378 233.976 389.44 225.268C400.357 215.827 411.815 207.032 423.615 198.704C446.53 182.541 470.594 168.08 494.64 153.657C494.951 153.46 495.174 153.149 495.262 152.79C495.349 152.432 495.294 152.053 495.109 151.734C494.923 151.415 494.621 151.18 494.266 151.08C493.911 150.979 493.531 151.021 493.206 151.195C469.161 165.618 445.087 180.05 422.172 196.241C411.359 203.847 400.803 211.91 390.684 220.466C379.672 229.784 369.866 241.383 357.459 248.903C355.893 249.854 357.326 252.326 358.893 251.366H358.931Z" fill="#E6E6E6"/>
<path d="M531.405 109.372C519.065 110.626 505.775 113.773 498.18 124.583C491.621 133.882 491.763 150.102 497.924 159.647C504.92 170.495 519.217 170.885 530.323 167.377C541.43 163.868 552.925 157.717 552.821 144.426C552.764 137.295 550.192 129.87 547.353 123.405C544.904 117.824 540.566 112.946 533.997 113.564C532.184 113.735 532.165 116.588 533.997 116.417C542.797 115.599 545.626 126.067 547.714 132.674C549.612 138.845 551.369 146.146 548.388 152.279C545.407 158.411 538.221 161.539 532.079 163.783C525.434 166.198 518.134 167.671 511.195 165.684C497.45 161.834 493.652 144.388 497.611 132.009C502.167 117.748 518.305 113.555 531.453 112.224C533.256 112.043 533.275 109.191 531.453 109.372H531.405Z" fill="#E6E6E6"/>
<path d="M550.391 219.658C538.05 220.913 524.76 224.06 517.166 234.87C510.607 244.168 510.749 260.388 516.91 269.934C523.906 280.782 538.202 281.172 549.309 277.663C560.415 274.155 571.911 268.004 571.807 254.712C571.75 247.582 569.177 240.156 566.339 233.691C563.89 228.11 559.552 223.233 552.983 223.851C551.169 224.022 551.15 226.874 552.983 226.703C561.782 225.886 564.611 236.353 566.7 242.961C568.598 249.131 570.354 256.433 567.374 262.565C564.393 268.698 557.207 271.826 551.065 274.069C544.42 276.484 537.12 277.958 530.181 275.971C516.435 272.12 512.638 254.674 516.597 242.295C521.153 228.034 537.291 223.841 550.438 222.51C552.242 222.33 552.261 219.477 550.438 219.658H550.391Z" fill="#E6E6E6"/>
<path d="M512.79 137.143L521.78 147.411C521.958 147.583 522.177 147.706 522.416 147.768C522.656 147.83 522.907 147.829 523.146 147.765C523.385 147.7 523.603 147.575 523.78 147.402C523.956 147.228 524.085 147.012 524.153 146.774C526.051 141.773 525.691 136.591 526.137 131.334C526.629 125.9 527.991 120.58 530.171 115.58C534.551 105.438 541.977 96.9138 551.416 91.1932C552.982 90.2424 551.549 87.7705 549.983 88.7307C540.675 94.3441 533.208 102.559 528.5 112.366C526.196 117.139 524.597 122.221 523.754 127.455C522.805 133.625 523.669 140.09 521.39 146.013L523.773 145.376L514.831 135.127C513.616 133.749 511.613 135.774 512.818 137.143H512.79Z" fill="#E6E6E6"/>
<path d="M363.516 262.48C412.479 260.984 461.456 260.667 510.445 261.529C510.814 261.516 511.163 261.359 511.419 261.093C511.675 260.827 511.818 260.472 511.818 260.103C511.818 259.733 511.675 259.378 511.419 259.112C511.163 258.846 510.814 258.69 510.445 258.677C461.469 257.802 412.492 258.119 363.516 259.628C361.683 259.685 361.674 262.537 363.516 262.48Z" fill="#E6E6E6"/>
<path d="M520.678 234.357C537.417 240.936 553.517 249.039 568.779 258.563C570.335 259.513 571.769 257.07 570.212 256.1C554.75 246.459 538.436 238.261 521.476 231.609C519.777 230.934 519.036 233.691 520.726 234.357H520.678Z" fill="#E6E6E6"/>
<path d="M551.074 221.436C534.101 241.254 524.268 266.209 523.156 292.295C523.08 294.13 525.928 294.13 526.004 292.295C527.082 266.958 536.619 242.716 553.087 223.452C554.273 222.064 552.27 220.038 551.074 221.436Z" fill="#E6E6E6"/>
<path d="M171.41 252.126L277.511 250.738L289.709 250.576C291.902 250.576 294.095 250.5 296.288 250.491C299.373 250.491 301.452 253.058 301.395 256.195C301.252 262.851 297.075 262.613 291.608 262.851L278.422 263.45L224.731 265.817C215.115 266.245 205.489 266.768 195.873 267.1C187.196 267.367 170.698 264.533 174.552 251.888C175.083 250.13 172.34 249.379 171.799 251.128C169.9 257.346 173.261 263.659 178.672 266.92C186.351 271.54 196.471 269.972 204.948 269.591L270.866 266.597L286.871 265.883C290.972 265.693 296.677 266.53 300.445 264.619C304.869 262.385 305.647 253.514 302.857 249.778C301.423 247.876 299.411 247.705 297.161 247.62C291.256 247.391 285.247 247.781 279.333 247.857L246.469 248.295L171.372 249.245C171.003 249.259 170.654 249.415 170.398 249.681C170.142 249.947 169.999 250.302 169.999 250.672C169.999 251.041 170.142 251.396 170.398 251.662C170.654 251.928 171.003 252.084 171.372 252.098L171.41 252.126Z" fill="#E6E6E6"/>
<path d="M483.124 326.185L452.306 307.59L461.306 342.48L466.731 329.769L475.779 341.921L478.463 339.917L469.414 327.764L483.124 326.185Z" fill="#FFCC00"/>
<path d="M529.114 346.214H476.903V364.279H529.114V346.214Z" fill="#FFCC00"/>
<path d="M300.762 178.819L331.58 160.224L322.58 195.114L317.155 182.403L308.106 194.555L305.422 192.551L314.471 180.399L300.762 178.819Z" fill="#3F3D56"/>
<path d="M306.982 199.799H254.772V217.864H306.982V199.799Z" fill="#3F3D56"/>
</svg>
