<svg width="788" height="552" viewBox="0 0 788 552" fill="none" xmlns="http://www.w3.org/2000/svg">
<path d="M788 508.185H381.755V509.621H788V508.185Z" fill="#3F3D56"/>
<path d="M356.926 67.5302L344.203 53.9275L357.844 41.2398L370.567 54.8425L356.926 67.5302ZM346.231 53.9979L356.997 65.5078L368.539 54.7721L357.773 43.2621L346.231 53.9979Z" fill="#3F3D56"/>
<path d="M511.731 261.53H493.077V242.929H511.731V261.53ZM494.512 260.099H510.296V244.359H494.512V260.099Z" fill="#3F3D56"/>
<path d="M477.554 159.459H0V502.798H477.554V159.459Z" fill="#FFCC00"/>
<path d="M253.543 189.627L0 220.046V193.994L253.543 189.627Z" fill="#3F3D56"/>
<path d="M477.554 432.736V460.412L208.165 428.096L477.554 432.736Z" fill="#3F3D56"/>
<path d="M388.238 351.24L0 401.448V374.132L388.238 351.24Z" fill="#3F3D56"/>
<path d="M477.554 259.422V287.859L73.4698 235.597L477.554 259.422Z" fill="#3F3D56"/>
<path d="M162.066 267.919L0 287.363V270.713L162.066 267.919Z" fill="#3F3D56"/>
<path d="M540.219 405.829H201.682V124.263H540.219V405.829ZM203.122 404.393H538.779V125.699H203.122V404.393Z" fill="#3F3D56"/>
<path d="M559.667 124.981C559.667 125.477 559.653 125.965 559.61 126.446C559.391 129.429 558.509 132.326 557.026 134.926C555.543 137.526 553.498 139.763 551.038 141.474C548.579 143.186 545.768 144.329 542.809 144.82C539.851 145.312 536.82 145.139 533.937 144.314C531.054 143.49 528.392 142.034 526.144 140.054C523.897 138.074 522.121 135.618 520.945 132.867C519.769 130.115 519.224 127.137 519.348 124.149C519.473 121.161 520.264 118.238 521.665 115.593C522.098 114.764 522.594 113.97 523.148 113.216C525.56 109.88 528.94 107.362 532.832 106.001C536.724 104.641 540.94 104.503 544.913 105.607C548.886 106.711 552.423 109.003 555.049 112.175C557.674 115.346 559.261 119.244 559.595 123.343C559.646 123.882 559.667 124.428 559.667 124.981Z" fill="#FFCC00"/>
<path d="M559.667 124.981C559.667 125.477 559.653 125.965 559.61 126.446L529.415 122.826L559.595 123.343C559.646 123.882 559.667 124.428 559.667 124.981Z" fill="#3F3D56"/>
<path d="M552.464 135.116L524.531 138.47C523.738 137.589 523.025 136.64 522.399 135.633L552.464 135.116Z" fill="#3F3D56"/>
<path d="M544.541 112.849L521.665 115.593C522.098 114.764 522.594 113.97 523.148 113.216L544.541 112.849Z" fill="#3F3D56"/>
<path d="M440.754 502.798H14.341C14.341 502.798 7.21734 398.575 44.19 378.319C44.406 378.197 44.6293 378.075 44.8526 377.967C48.5656 376.064 52.6646 375.03 56.8383 374.943C107.979 373.507 102.217 430.969 166.323 351.958C206.191 302.821 251.353 285.912 282.225 291.378C282.794 291.479 283.356 291.587 283.918 291.702C301.81 295.408 314.609 306.829 318.305 323.945C328.389 370.634 298.857 407.984 352.879 396.492C378.168 391.112 408.665 394.861 429.446 409.363C429.647 409.507 429.849 409.651 430.051 409.794C453.244 426.358 463.926 456.591 440.754 502.798Z" fill="#2F2E41"/>
<path d="M283.918 291.702C280.359 295.279 267.934 308.933 255.07 336.573C241.075 366.647 223.701 419.893 220.352 502.798V502.826L219.632 502.798L218.911 502.769C222.268 419.534 239.749 366.058 253.817 335.854C266.026 309.666 277.874 295.918 282.225 291.378C282.794 291.479 283.356 291.587 283.918 291.702Z" fill="#F2F2F2"/>
<path d="M374.679 502.998L373.296 502.597C389.948 445.599 429.163 409.612 429.557 409.255L430.525 410.318C430.134 410.672 391.213 446.405 374.679 502.998Z" fill="#F2F2F2"/>
<path d="M81.5024 502.896L80.0751 502.699C85.7249 462.065 75.5195 430.539 65.963 411.248C55.6154 390.361 43.809 378.952 43.6909 378.839L44.6876 377.802C44.8075 377.917 56.7964 389.501 67.2544 410.612C76.9003 430.084 87.2024 461.901 81.5024 502.896Z" fill="#F2F2F2"/>
<path d="M221.85 105.588H181.514V145.811H221.85V105.588Z" fill="#FFCC00"/>
<path d="M185.115 116.362L221.85 118.531V121.11L185.115 116.362Z" fill="#3F3D56"/>
<path d="M185.115 137.91L221.85 140.079V142.658L185.115 137.91Z" fill="#3F3D56"/>
<path d="M181.514 131.216L208.885 127.933L181.514 128.407V131.216Z" fill="#3F3D56"/>
<path d="M568.743 404.673L540.219 433.117L511.696 404.673L540.219 376.229L560.215 396.169L568.743 404.673Z" fill="#FFCC00"/>
<path d="M558.061 394.021L560.215 396.169L531.576 392.462L558.061 394.021Z" fill="#3F3D56"/>
<path d="M525.093 406.828L564.263 409.141L561.821 411.576L525.093 406.828Z" fill="#3F3D56"/>
<path d="M548.863 420.554L529.905 422.831L527.982 420.913L548.863 420.554Z" fill="#3F3D56"/>
<path d="M63.0471 329.703L50.3239 316.101L63.9647 303.413L76.6879 317.016L63.0471 329.703ZM52.3519 316.171L63.1177 327.681L74.6599 316.945L63.8941 305.435L52.3519 316.171Z" fill="#3F3D56"/>
<path d="M523.189 205.693C523.189 205.693 484.094 243.899 500.514 248.577C516.933 253.255 535.699 213.49 535.699 213.49L523.189 205.693Z" fill="#FBBEBE"/>
<path d="M562.283 334.345L557.592 356.177L592.777 357.736L587.303 334.345H562.283Z" fill="#FBBEBE"/>
<path d="M673.312 469.235L668.621 491.067L703.806 492.626L698.332 469.235H673.312Z" fill="#FBBEBE"/>
<path d="M611.542 188.539L614.67 201.015C614.67 201.015 527.88 183.861 532.571 227.525C537.263 271.188 557.592 313.293 557.592 313.293C557.592 313.293 556.028 327.328 559.156 329.667C562.283 332.006 559.156 339.803 559.156 339.803C559.156 339.803 588.086 343.701 588.868 336.684C589.286 331.993 589.023 327.266 588.086 322.649C588.086 322.649 589.649 322.649 588.086 314.852C586.522 307.055 580.205 244.173 575.514 235.597C575.514 235.597 617.016 267.29 638.909 263.391C638.909 263.391 635.781 294.58 648.291 335.904C660.802 377.229 660.802 381.907 660.802 381.907C660.802 381.907 675.658 460.658 671.748 470.014L670.966 473.913H699.896C699.896 473.913 697.551 432.588 699.896 427.13C702.242 421.672 702.242 374.89 688.95 351.499C679.537 334.934 681.29 286.904 686.439 267.919C690.763 251.977 691.855 239.707 689.32 223.386C686.609 205.933 678.516 196.809 668.621 188.539H611.542Z" fill="#2F2E41"/>
<path d="M634.608 71.1928C650.154 71.1928 662.756 58.6257 662.756 43.1233C662.756 27.6209 650.154 15.0537 634.608 15.0537C619.062 15.0537 606.46 27.6209 606.46 43.1233C606.46 58.6257 619.062 71.1928 634.608 71.1928Z" fill="#FBBEBE"/>
<path d="M627.18 63.0059C627.18 63.0059 635.781 87.9566 634.999 92.6349C634.217 97.3131 660.02 83.2783 660.02 83.2783C660.02 83.2783 649.855 58.3276 652.983 51.3102L627.18 63.0059Z" fill="#FBBEBE"/>
<path d="M658.456 74.7015L631.09 85.6175L632.653 94.974C632.653 94.974 630.308 98.0928 631.09 99.6523C631.872 101.212 620.925 107.449 622.489 109.788C624.053 112.128 613.106 121.484 613.888 123.823C614.67 126.162 588.868 140.197 602.942 167.487C602.942 167.487 610.239 176.947 609.324 188.133C609.292 188.526 609.25 188.922 609.197 189.319C607.633 201.015 668.621 187.759 668.621 187.759V174.504C668.621 174.504 674.094 172.165 673.312 162.029C672.53 151.893 667.839 156.571 673.312 151.113C678.785 145.655 678.785 146.435 678.003 141.757C677.691 139.888 677.628 133.171 677.665 125.776C677.737 110.149 672.634 94.9364 663.147 82.4987L658.456 74.7015Z" fill="#D0CDE1"/>
<path d="M643.6 94.974L592.777 147.994L518.497 206.473L534.917 219.728L671.748 128.502C671.748 128.502 683.476 78.6001 643.6 94.974Z" fill="#D0CDE1"/>
<path d="M564.629 346.041C564.629 346.041 559.156 336.684 555.246 339.803L527.88 361.635C527.88 361.635 479.403 375.67 526.316 386.586C526.316 386.586 552.119 390.484 557.592 386.586C563.065 382.687 571.666 383.467 574.012 385.026C576.357 386.586 606.069 384.246 606.069 378.009C606.069 371.771 589.682 344.51 589.682 344.51C589.682 344.51 580.267 355.397 564.629 346.041Z" fill="#2F2E41"/>
<path d="M675.658 480.93C675.658 480.93 670.184 471.574 666.275 474.693L638.909 496.525C638.909 496.525 590.431 510.559 637.345 521.475C637.345 521.475 663.147 525.374 668.621 521.475C674.094 517.577 682.695 518.356 685.04 519.916C687.386 521.475 717.098 519.136 717.098 512.898C717.098 506.661 700.711 479.399 700.711 479.399C700.711 479.399 691.295 490.287 675.658 480.93Z" fill="#2F2E41"/>
<path d="M600.875 31.9914C600.875 31.9914 605.634 -9.72816 646.339 2.11737C646.339 2.11737 675.136 -3.72352 685.306 32.1414L695.63 69.7431L690.904 67.2943L688.816 72.0885L681.274 74.1474L677.908 67.7909L676.489 75.6155L624.409 86.1157C624.409 86.1157 642.022 66.0475 641.897 36.6557L636.709 42.3372L600.875 31.9914Z" fill="#2F2E41"/>
<path d="M744.782 526.86H548.863V528.297H744.782V526.86Z" fill="#3F3D56"/>
<path d="M768.552 550.563H453.784V552H768.552V550.563Z" fill="#3F3D56"/>
</svg>
